#tb 0: 1/25
#media_type 0: video
#codec_id 0: rawvideo
#dimensions 0: 480x270
#sar 0: 1/1
0,          0,          0,        1,   324000, 0x0240ddf8
0,          1,          1,        1,   324000, 0x01c3164c
0,          2,          2,        1,   324000, 0x456d6e4b
0,          3,          3,        1,   324000, 0xc3785be5
0,          4,          4,        1,   324000, 0xbfda8303
0,          5,          5,        1,   324000, 0x34fa71b3
0,          6,          6,        1,   324000, 0x6014a91c
0,          7,          7,        1,   324000, 0x4b21a6b8
0,          8,          8,        1,   324000, 0x10083c64
0,          9,          9,        1,   324000, 0x224cf870
0,         10,         10,        1,   324000, 0xa1fe711f
0,         11,         11,        1,   324000, 0xf84ba01e
0,         12,         12,        1,   324000, 0x6bda8dbe
0,         13,         13,        1,   324000, 0xf397161a
0,         14,         14,        1,   324000, 0x34ec9df1
0,         15,         15,        1,   324000, 0x75f2439c
0,         16,         16,        1,   324000, 0xf4232636
0,         17,         17,        1,   324000, 0x4b980503
0,         18,         18,        1,   324000, 0x4ac5be69
0,         19,         19,        1,   324000, 0x35d2d74d
0,         20,         20,        1,   324000, 0x058b4733
0,         21,         21,        1,   324000, 0x01ac65fb
0,         22,         22,        1,   324000, 0x499d1cda
0,         23,         23,        1,   324000, 0xd4fb58e3
0,         24,         24,        1,   324000, 0x0bc3ba6f
0,         25,         25,        1,   324000, 0xdb5b514d
0,         26,         26,        1,   324000, 0x5df6997a
0,         27,         27,        1,   324000, 0x598b09c7
0,         28,         28,        1,   324000, 0xdbdda2e3
0,         29,         29,        1,   324000, 0x3ee5ffe5
0,         30,         30,        1,   324000, 0xf11aa1a4
0,         31,         31,        1,   324000, 0xb611ecb0
0,         32,         32,        1,   324000, 0x92e31bbd
0,         33,         33,        1,   324000, 0x280048c2
0,         34,         34,        1,   324000, 0x8c276aec
0,         35,         35,        1,   324000, 0xc1d24a33
0,         36,         36,        1,   324000, 0x78ed1a8e
0,         37,         37,        1,   324000, 0xb9ccff6b
0,         38,         38,        1,   324000, 0x721894b3
0,         39,         39,        1,   324000, 0x91d92b40
0,         40,         40,        1,   324000, 0x8b6870e4
0,         41,         41,        1,   324000, 0x211d007c
0,         42,         42,        1,   324000, 0x277fdd99
0,         43,         43,        1,   324000, 0x1e13ce66
0,         44,         44,        1,   324000, 0x833f1430
0,         45,         45,        1,   324000, 0xded9d8b2
0,         46,         46,        1,   324000, 0xab5dc7bf
0,         47,         47,        1,   324000, 0x05fba130
0,         48,         48,        1,   324000, 0xbd06edbf
0,         49,         49,        1,   324000, 0x5bdde7e8
